<svg xmlns:dc="http://purl.org/dc/elements/1.1/" xmlns:cc="http://creativecommons.org/ns#" xmlns:rdf="http://www.w3.org/1999/02/22-rdf-syntax-ns#" xmlns:svg="http://www.w3.org/2000/svg" xmlns="http://www.w3.org/2000/svg" version="1.1" viewBox="0 0 100 100" xml:space="preserve" x="0px" y="0px"><path d="m 50,5 c -4.203013,0 -7.625,3.421907 -7.625,7.625 0,4.203113 3.421987,7.59375 7.625,7.59375 4.203213,0 7.625,-3.390637 7.625,-7.59375 C 57.625,8.421907 54.203213,5 50,5 z M 40.84375,21.46875 C 35.830912,22.064298 33,26.92262 33,31.46875 l 0,23.5 c 0,4.397228 6.084007,4.324785 6.09375,-0.0625 0,-7.504066 -0.03125,-13.397057 -0.03125,-21.21875 0,-0.506214 0.400035,-0.90625 0.90625,-0.90625 0.506413,0 0.90625,0.400036 0.90625,0.90625 0.07953,19.246557 -0.03125,37.446136 -0.03125,57.21875 0,2.263134 1.820556,4.09375 4.09375,4.09375 2.273194,0 4.115058,-1.820695 4.125,-4.09375 0,-11.027805 0,-23.335742 0,-33.5 0,-0.506215 0.400035,-0.90625 0.90625,-0.90625 0.506214,0 0.90625,0.400035 0.90625,0.90625 0,11.355353 0,22.601234 0,33.5 C 50.875,93.169384 52.727004,95 55,95 c 2.272995,0 4.09375,-1.820695 4.09375,-4.09375 0.01988,-21.400494 0,-36.771136 0,-57.21875 0,-0.506214 0.400035,-0.90625 0.90625,-0.90625 0.506413,0 0.9375,0.400036 0.9375,0.90625 0.0099,7.365106 -0.03125,14.349957 -0.03125,21.21875 0,4.397228 6.09375,4.469651 6.09375,0.0625 l 0,-23.5 c 0,-4.863757 -3.218592,-10 -8.90625,-10 l -17.25,0 z" style="" fill="#000000" fill-opacity="1"></path></svg>